<svg xmlns="http://www.w3.org/2000/svg" xmlns:xlink="http://www.w3.org/1999/xlink" preserveAspectRatio="xMidYMid" width="65" height="76" viewBox="0 0 65 76">
  <defs>
    <style>
      .cls-1 {
        fill: #5fd5c6;
      }

      .cls-1, .cls-2 {
        fill-rule: evenodd;
      }

      .cls-2 {
        fill: #08305d;
      }
    </style>
  </defs>
  <g>
    <path d="M37.916,17.940 C47.068,17.940 54.479,25.412 54.470,34.631 C54.461,43.849 47.035,51.322 37.883,51.322 C28.732,51.322 21.320,43.849 21.329,34.631 C21.338,25.412 28.764,17.940 37.916,17.940 Z" class="cls-1"/>
    <g>
      <path d="M42.139,47.412 C42.140,46.427 42.632,45.473 43.454,44.862 C47.904,41.557 50.564,36.252 50.569,30.673 C50.574,25.833 48.580,21.156 45.097,17.842 C41.567,14.483 36.949,12.807 32.089,13.117 C23.375,13.679 16.405,20.762 15.874,29.594 C15.507,35.708 18.224,41.476 23.142,45.020 C23.829,45.515 24.239,46.327 24.238,47.193 L24.235,49.568 C24.235,49.934 24.276,50.289 24.350,50.631 C24.520,51.415 24.870,52.130 25.360,52.727 C24.679,53.222 24.231,54.026 24.230,54.938 L24.227,57.625 C24.225,60.189 26.281,62.275 28.811,62.275 L37.536,62.275 C40.067,62.275 42.127,60.189 42.129,57.625 L42.132,54.938 C42.133,54.026 41.686,53.222 41.007,52.727 C41.497,52.130 41.849,51.415 42.020,50.631 C42.095,50.289 42.137,49.934 42.137,49.568 L42.139,47.412 ZM40.045,57.625 C40.044,59.025 38.919,60.163 37.538,60.163 L28.814,60.163 C27.433,60.163 26.311,59.025 26.312,57.625 L26.315,54.938 C26.315,54.603 26.593,54.322 26.923,54.322 L39.442,54.322 C39.771,54.322 40.049,54.603 40.049,54.938 L40.046,57.625 L40.045,57.625 ZM29.377,33.489 L28.118,33.489 C28.114,33.489 28.111,33.490 28.107,33.491 C27.414,33.486 26.852,32.950 26.853,32.292 C26.854,31.627 27.422,31.086 28.119,31.086 C28.808,31.086 29.367,31.615 29.380,32.268 C29.380,32.275 29.378,32.283 29.378,32.290 L29.377,33.489 L29.377,33.489 ZM31.443,52.210 L31.459,35.601 L34.931,35.601 L34.914,52.211 L31.443,52.211 L31.443,52.210 ZM40.055,47.412 L40.053,49.568 C40.052,50.774 39.302,51.799 38.253,52.210 L36.998,52.210 L37.014,35.601 L38.265,35.601 C38.272,35.601 38.279,35.603 38.285,35.603 C40.132,35.603 41.636,34.118 41.637,32.292 C41.639,30.462 40.138,28.975 38.292,28.975 C36.519,28.975 35.075,30.347 34.957,32.072 C34.942,32.142 34.934,32.215 34.934,32.290 L34.933,33.489 L31.461,33.489 L31.462,32.340 C31.463,32.323 31.467,32.308 31.467,32.292 C31.469,30.462 29.968,28.975 28.122,28.975 C26.275,28.975 24.772,30.462 24.770,32.292 C24.768,34.118 26.269,35.603 28.115,35.603 C28.122,35.603 28.128,35.601 28.135,35.601 L29.375,35.601 L29.359,52.211 L28.114,52.211 C27.066,51.799 26.318,50.774 26.319,49.568 L26.321,47.193 C26.323,45.645 25.586,44.189 24.351,43.299 C20.022,40.179 17.631,35.103 17.954,29.721 C18.421,21.950 24.553,15.718 32.219,15.224 C32.558,15.202 32.895,15.191 33.231,15.191 C37.134,15.191 40.809,16.659 43.670,19.381 C46.779,22.341 48.490,26.351 48.486,30.673 C48.481,35.583 46.140,40.250 42.223,43.161 C40.867,44.168 40.057,45.757 40.055,47.412 ZM37.016,33.489 L37.018,32.295 C37.018,32.294 37.018,32.293 37.018,32.292 C37.018,31.627 37.588,31.086 38.289,31.086 C38.987,31.086 39.554,31.627 39.553,32.292 C39.552,32.950 38.989,33.486 38.296,33.491 C38.292,33.491 38.288,33.489 38.284,33.489 L37.016,33.489 Z" class="cls-2"/>
      <path d="M30.919,60.640 L35.438,60.640 C37.459,60.640 39.097,62.290 39.095,64.326 C39.093,66.363 37.452,68.013 35.431,68.013 L30.912,68.013 C28.890,68.013 27.253,66.363 27.255,64.326 C27.257,62.290 28.897,60.640 30.919,60.640 Z" class="cls-2"/>
      <path d="M51.983,18.929 L57.598,15.669 L58.130,16.598 L58.662,17.526 L53.048,20.785 C52.722,20.148 52.366,19.529 51.983,18.929 ZM58.636,44.843 L57.568,46.700 L51.959,43.440 C52.344,42.840 52.700,42.221 53.029,41.583 L58.636,44.843 ZM43.360,11.029 L46.606,5.383 L48.451,6.456 L45.204,12.103 C44.608,11.717 43.993,11.358 43.360,11.029 ZM33.028,8.502 C32.671,8.502 32.315,8.513 31.962,8.529 L31.968,2.011 L34.100,2.011 L34.094,8.529 C33.741,8.513 33.385,8.502 33.028,8.502 ZM17.609,6.456 L19.456,5.383 L22.689,11.029 C22.056,11.358 21.440,11.717 20.843,12.103 L17.609,6.456 ZM7.376,17.526 L7.910,16.598 L8.444,15.669 L14.053,18.929 C13.668,19.529 13.312,20.148 12.983,20.785 L7.376,17.526 ZM10.462,31.185 C10.462,31.545 10.472,31.902 10.488,32.258 L4.009,32.258 L4.010,31.185 L4.012,30.113 L10.490,30.113 C10.473,30.468 10.462,30.825 10.462,31.185 ZM14.029,43.440 L8.413,46.700 L7.349,44.843 L12.963,41.584 C13.289,42.221 13.645,42.841 14.029,43.440 ZM55.549,31.184 C55.550,30.825 55.540,30.468 55.523,30.112 L62.002,30.112 L62.001,31.184 L62.000,32.257 L55.521,32.257 C55.538,31.902 55.549,31.544 55.549,31.184 Z" class="cls-2"/>
    </g>
  </g>
</svg>
