<svg xmlns="http://www.w3.org/2000/svg" xmlns:xlink="http://www.w3.org/1999/xlink" preserveAspectRatio="xMidYMid" width="65" height="76" viewBox="0 0 65 76">
  <defs>
    <style>
      .cls-1 {
        fill: #5fd5c6;
      }

      .cls-1, .cls-2, .cls-4, .cls-5 {
        fill-rule: evenodd;
      }

      .cls-2 {
        fill: #ffd99b;
      }

      .cls-3, .cls-4 {
        fill: #61a7cf;
      }

      .cls-5 {
        fill: #08305d;
      }
    </style>
  </defs>
  <g>
    <path d="M41.023,9.143 C48.322,9.143 54.233,15.062 54.226,22.363 C54.219,29.665 48.296,35.584 40.997,35.584 C33.697,35.584 27.786,29.665 27.793,22.363 C27.800,15.062 33.723,9.143 41.023,9.143 Z" class="cls-1"/>
    <path d="M33.443,36.339 C36.572,36.339 39.105,38.876 39.102,42.005 C39.099,45.134 36.560,47.671 33.432,47.671 C30.304,47.671 27.770,45.134 27.773,42.005 C27.777,38.876 30.315,36.339 33.443,36.339 Z" class="cls-2"/>
    <circle cx="47.406" cy="46.156" r="4.531" class="cls-3"/>
    <path d="M19.466,41.627 C21.969,41.627 23.996,43.657 23.993,46.160 C23.991,48.664 21.960,50.693 19.457,50.693 C16.955,50.693 14.928,48.664 14.930,46.160 C14.933,43.657 16.964,41.627 19.466,41.627 Z" class="cls-4"/>
    <path d="M47.648,51.498 C44.601,51.498 42.135,49.035 42.138,45.999 C42.141,42.962 44.613,40.500 47.659,40.500 C50.705,40.500 53.172,42.962 53.169,45.999 C53.166,49.035 50.695,51.498 47.648,51.498 ZM47.657,42.356 C45.642,42.356 44.002,43.990 44.000,45.998 C43.998,48.006 45.636,49.641 47.650,49.641 C49.664,49.641 51.305,48.006 51.307,45.998 C51.309,43.990 49.672,42.356 47.657,42.356 ZM33.430,49.023 C29.563,49.023 26.419,45.886 26.423,42.031 C26.427,38.176 29.577,35.039 33.444,35.039 C37.311,35.039 40.454,38.176 40.451,42.031 C40.447,45.886 37.297,49.023 33.430,49.023 ZM33.442,36.895 C30.601,36.895 28.288,39.199 28.285,42.031 C28.282,44.863 30.591,47.167 33.432,47.167 C36.272,47.167 38.586,44.863 38.588,42.031 C38.591,39.199 36.282,36.895 33.442,36.895 ZM31.070,50.563 L35.787,50.563 C37.253,50.563 38.616,51.001 39.758,51.748 C41.739,53.043 43.050,55.275 43.048,57.808 L43.045,60.516 L41.183,60.516 L41.186,57.808 C41.188,54.836 38.765,52.419 35.785,52.419 L31.068,52.419 C28.088,52.419 25.661,54.837 25.658,57.808 L25.655,60.516 L23.793,60.516 L23.796,57.808 C23.798,56.130 24.380,54.587 25.345,53.358 C26.677,51.660 28.746,50.563 31.070,50.563 ZM19.207,51.498 C16.160,51.498 13.694,49.035 13.697,45.999 C13.700,42.962 16.172,40.500 19.218,40.500 C22.264,40.500 24.731,42.962 24.728,45.999 C24.725,49.035 22.254,51.498 19.207,51.498 ZM19.216,42.356 C17.202,42.356 15.561,43.990 15.559,45.998 C15.557,48.006 17.195,49.641 19.209,49.641 C21.223,49.641 22.864,48.006 22.866,45.998 C22.868,43.990 21.231,42.356 19.216,42.356 ZM17.066,53.649 L21.344,53.649 C21.553,53.649 21.759,53.659 21.962,53.678 C22.432,53.723 22.785,54.131 22.784,54.602 C22.784,55.157 22.300,55.568 21.747,55.522 C21.613,55.511 21.479,55.505 21.342,55.505 L17.065,55.505 C14.405,55.505 12.247,57.654 12.245,60.305 L12.245,60.516 L10.382,60.516 L10.382,60.305 C10.386,56.629 13.379,53.649 17.066,53.649 ZM45.166,53.658 C45.279,53.652 45.393,53.649 45.507,53.649 L49.785,53.649 C53.473,53.649 56.459,56.629 56.456,60.305 L56.455,60.516 L54.593,60.516 L54.593,60.305 C54.596,57.654 52.442,55.505 49.783,55.505 L45.506,55.505 C45.416,55.505 45.327,55.508 45.239,55.513 C44.708,55.545 44.264,55.120 44.265,54.589 C44.266,54.088 44.664,53.685 45.166,53.658 Z" class="cls-5"/>
    <path d="M50.040,37.474 C49.319,37.476 48.683,37.611 48.125,37.841 C48.167,37.735 48.218,37.635 48.257,37.528 C47.627,37.486 46.882,37.431 46.037,37.368 C45.328,37.315 44.624,37.262 44.066,37.223 C43.508,37.184 43.035,37.157 43.002,37.157 C42.753,37.156 42.517,37.044 42.359,36.852 C42.354,36.847 41.981,36.458 41.663,36.084 C41.503,35.897 41.341,35.703 41.203,35.488 C41.065,35.273 40.901,35.079 40.901,34.614 L40.904,32.071 C40.904,31.947 40.931,31.826 40.983,31.714 C40.983,31.714 41.237,31.167 41.523,30.575 C41.809,29.983 42.067,29.438 42.313,29.065 C42.321,29.048 42.330,29.030 42.340,29.012 C43.291,27.781 45.966,25.490 47.692,24.378 C45.109,18.897 39.695,15.038 33.352,14.723 L33.350,16.816 C33.351,17.183 33.117,17.509 32.771,17.624 L30.523,18.379 C29.440,19.846 29.397,20.899 29.901,21.954 C29.879,21.905 30.190,22.370 30.440,22.762 C30.565,22.957 30.674,23.157 30.768,23.411 C30.815,23.538 30.872,23.675 30.872,23.888 C30.873,24.100 30.772,24.440 30.530,24.655 C30.377,24.791 30.181,24.866 29.978,24.868 C29.475,24.868 28.917,24.747 28.230,24.642 C27.566,24.541 26.844,24.450 26.259,24.444 L26.246,24.444 C25.224,24.537 23.638,25.952 22.536,27.992 C21.444,30.018 20.826,32.538 21.124,34.402 C21.168,34.453 21.236,34.524 21.335,34.627 C21.554,34.857 21.978,35.165 21.977,35.886 C21.977,36.164 21.867,36.537 21.621,36.773 C21.375,37.008 21.110,37.071 20.911,37.104 C20.515,37.169 20.222,37.137 19.926,37.157 C19.899,37.158 19.873,37.158 19.847,37.157 C19.134,37.136 18.344,37.155 17.876,37.157 L16.693,37.461 C16.738,37.586 16.782,37.701 16.827,37.822 C16.724,37.817 16.624,37.807 16.518,37.807 C16.004,37.807 15.536,37.878 15.105,37.998 C14.389,36.013 13.989,33.877 13.991,31.648 C14.001,21.374 22.317,13.002 32.512,13.002 C42.707,13.002 51.007,21.374 50.997,31.648 C50.995,33.686 50.649,35.640 50.040,37.474 ZM31.643,14.723 C22.761,15.178 15.683,22.586 15.674,31.648 C15.672,33.090 15.845,34.494 16.181,35.832 L17.562,35.488 C17.631,35.470 17.701,35.462 17.773,35.462 C18.148,35.462 19.026,35.442 19.822,35.462 C19.813,35.451 19.805,35.447 19.796,35.435 C19.679,35.289 19.537,35.090 19.481,34.760 L19.468,34.760 C19.466,34.747 19.470,34.733 19.468,34.720 C19.059,32.276 19.810,29.476 21.052,27.171 C22.302,24.856 24.025,22.923 26.129,22.748 L26.195,22.748 C26.963,22.748 27.774,22.866 28.482,22.973 C28.518,22.980 28.523,22.982 28.560,22.988 C28.497,22.885 28.435,22.819 28.377,22.696 C27.595,21.060 27.831,19.046 29.328,17.134 C29.430,17.005 29.567,16.907 29.723,16.855 L31.668,16.207 L31.669,14.723 C31.661,14.724 31.652,14.723 31.643,14.723 ZM48.348,25.966 C48.348,25.965 48.335,25.967 48.335,25.966 C46.834,27.042 44.181,29.395 43.679,30.045 C43.633,30.124 43.302,30.761 43.034,31.316 C42.797,31.806 42.646,32.128 42.586,32.257 L42.584,34.481 C42.588,34.500 42.597,34.521 42.623,34.561 C42.691,34.667 42.807,34.830 42.938,34.985 C43.106,35.182 43.238,35.330 43.385,35.488 C43.610,35.499 43.804,35.501 44.186,35.528 C44.750,35.567 45.449,35.620 46.157,35.673 C47.343,35.762 48.300,35.819 48.799,35.846 C49.139,34.503 49.313,33.095 49.315,31.648 C49.317,29.655 48.974,27.743 48.348,25.966 ZM28.016,28.655 C28.074,28.569 28.234,28.296 28.397,28.032 C28.561,27.769 28.695,27.538 28.951,27.278 C28.950,27.274 28.950,27.269 28.951,27.265 C29.381,26.843 29.828,26.776 30.304,26.695 C30.781,26.613 31.302,26.575 31.816,26.563 C32.842,26.537 33.893,26.602 34.129,26.602 C34.172,26.603 34.216,26.607 34.260,26.615 L36.770,27.039 C37.171,27.110 37.465,27.462 37.465,27.873 L37.462,31.250 C37.461,31.570 37.283,31.860 37.001,32.005 L34.964,33.025 L34.962,34.230 C34.477,33.957 33.916,33.767 33.281,33.683 L33.282,32.508 C33.282,32.190 33.461,31.898 33.742,31.754 L35.780,30.721 L35.782,28.589 L34.048,28.297 C33.603,28.294 32.755,28.235 31.854,28.258 C31.387,28.269 30.933,28.305 30.591,28.363 C30.336,28.407 30.154,28.502 30.119,28.509 C30.119,28.518 29.967,28.711 29.829,28.932 C29.678,29.175 29.530,29.425 29.395,29.621 C29.201,29.906 29.112,30.100 29.079,30.191 C29.067,30.222 29.069,30.226 29.066,30.230 C29.068,30.217 29.234,30.497 29.538,31.012 C29.547,31.028 29.541,31.021 29.551,31.038 C29.573,31.073 30.092,31.859 30.312,32.138 C30.721,32.571 31.409,33.111 32.182,33.648 C31.379,33.699 30.684,33.911 30.100,34.247 C29.692,33.903 29.327,33.564 29.036,33.250 C29.022,33.232 29.009,33.215 28.997,33.196 C28.619,32.719 28.118,31.925 28.118,31.925 C28.113,31.916 28.109,31.907 28.105,31.899 C27.851,31.467 27.546,31.205 27.409,30.575 C27.342,30.260 27.388,29.904 27.502,29.595 C27.616,29.286 27.783,28.998 28.016,28.655 Z" class="cls-5"/>
  </g>
</svg>
