<svg xmlns="http://www.w3.org/2000/svg" xmlns:xlink="http://www.w3.org/1999/xlink" preserveAspectRatio="xMidYMid" width="65" height="76" viewBox="0 0 65 76">
  <defs>
    <style>
      .cls-1 {
        fill: #4da4d5;
      }

      .cls-1, .cls-3, .cls-4, .cls-5 {
        fill-rule: evenodd;
      }

      .cls-2 {
        fill: #ffd99b;
      }

      .cls-3 {
        fill: #5fd5c6;
      }

      .cls-4 {
        stroke: #08305d;
        stroke-width: 2px;
        fill: none;
      }

      .cls-5 {
        fill: #08305d;
      }
    </style>
  </defs>
  <g>
    <path d="M22.961,22.135 C25.892,22.135 28.266,24.502 28.263,27.423 C28.260,30.343 25.882,32.711 22.951,32.711 C20.020,32.711 17.646,30.343 17.649,27.423 C17.652,24.502 20.030,22.135 22.961,22.135 Z" class="cls-1"/>
    <circle cx="40.375" cy="54.625" r="17.438" class="cls-2"/>
    <path d="M47.561,4.843 C50.492,4.843 52.866,7.211 52.863,10.132 C52.860,13.052 50.482,15.420 47.551,15.420 C44.620,15.420 42.246,13.052 42.249,10.132 C42.252,7.211 44.630,4.843 47.561,4.843 Z" class="cls-3"/>
    <path d="M11.439,11.558 L48.151,11.558 C50.575,11.558 52.538,13.516 52.535,15.931 L52.488,63.845 C52.485,66.260 50.519,68.218 48.095,68.218 L11.383,68.218 C8.959,68.218 6.996,66.260 6.999,63.845 L7.046,15.931 C7.049,13.516 9.016,11.558 11.439,11.558 Z" class="cls-4"/>
    <path d="M10.556,15.062 L17.061,15.062 L10.549,21.600 L10.556,15.062 ZM43.517,50.873 L43.516,52.590 L14.880,52.590 L14.881,50.873 L43.517,50.873 ZM14.908,56.247 L16.116,55.033 L17.646,56.572 L19.180,55.033 L20.387,56.247 L18.853,57.786 L20.384,59.326 L19.175,60.540 L17.644,58.999 L16.111,60.540 L14.905,59.326 L16.437,57.786 L14.908,56.247 ZM43.510,57.911 L43.509,59.628 L22.322,59.628 L22.324,57.911 L43.510,57.911 ZM14.885,47.353 L43.521,47.353 L43.519,49.070 L14.883,49.070 L14.885,47.353 ZM14.888,43.836 L43.524,43.836 L43.523,45.552 L14.887,45.552 L14.888,43.836 ZM14.892,40.316 L43.528,40.316 L43.526,42.033 L14.890,42.033 L14.892,40.316 Z" class="cls-5"/>
    <path d="M38.194,26.684 L38.199,21.145 C41.220,21.145 43.666,23.625 43.663,26.684 L38.194,26.684 ZM42.942,28.122 C42.939,31.603 40.150,34.425 36.713,34.425 C33.276,34.425 30.492,31.603 30.495,28.122 C30.499,24.640 33.288,21.818 36.725,21.818 L36.719,28.122 L42.942,28.122 ZM35.170,28.122 L35.174,23.653 C33.355,24.302 32.046,26.060 32.044,28.122 C32.042,30.732 34.136,32.856 36.714,32.856 C38.749,32.856 40.486,31.533 41.129,29.690 L36.717,29.690 L35.168,29.690 L35.170,28.122 ZM22.428,21.145 C25.449,21.145 27.895,23.625 27.892,26.684 L22.423,26.684 L22.428,21.145 ZM27.225,28.122 C27.222,31.603 24.432,34.425 20.995,34.425 C17.558,34.425 14.775,31.603 14.778,28.122 C14.782,24.640 17.571,21.817 21.008,21.818 L21.002,28.122 L27.225,28.122 ZM19.454,28.122 L19.458,23.653 C17.639,24.302 16.330,26.060 16.328,28.122 C16.325,30.732 18.420,32.856 20.998,32.856 C23.033,32.856 24.770,31.533 25.412,29.690 L21.001,29.690 L19.452,29.690 L19.454,28.122 Z" class="cls-5"/>
  </g>
</svg>
