<svg xmlns="http://www.w3.org/2000/svg" xmlns:xlink="http://www.w3.org/1999/xlink" preserveAspectRatio="xMidYMid" width="65" height="76" viewBox="0 0 65 76">
  <defs>
    <style>
      .cls-1 {
        fill: #5fd5c6;
      }

      .cls-1, .cls-3 {
        fill-rule: evenodd;
      }

      .cls-2 {
        fill: #ffd99b;
      }

      .cls-3 {
        fill: #08305d;
      }
    </style>
  </defs>
  <g>
    <path d="M43.395,22.235 C53.676,22.235 62.003,30.566 61.992,40.841 C61.982,51.117 53.640,59.447 43.358,59.447 C33.077,59.447 24.751,51.117 24.761,40.841 C24.772,30.566 33.114,22.235 43.395,22.235 Z" class="cls-1"/>
    <circle cx="26.688" cy="11.219" r="7.219" class="cls-2"/>
    <path d="M21.051,47.607 L31.929,47.607 C32.055,47.607 32.156,47.746 32.156,47.920 L32.154,49.174 C32.154,49.347 32.053,49.486 31.927,49.486 L21.049,49.486 C20.925,49.486 20.823,49.347 20.823,49.174 L20.824,47.920 C20.825,47.746 20.927,47.607 21.051,47.607 ZM16.140,33.709 L16.141,32.456 C16.141,32.282 16.327,32.142 16.556,32.142 L36.455,32.142 C36.686,32.142 36.871,32.282 36.871,32.456 L36.869,33.709 C36.868,33.882 36.683,34.023 36.454,34.023 L16.554,34.023 C16.325,34.023 16.139,33.882 16.140,33.709 ZM47.990,19.226 C47.722,19.107 47.410,19.038 47.054,19.038 C46.703,19.038 46.396,19.106 46.130,19.223 L46.131,18.026 C46.132,17.091 45.362,16.329 44.415,16.329 L37.115,16.329 L37.114,16.965 C37.113,18.448 35.891,19.652 34.392,19.652 L18.645,19.652 C17.145,19.652 15.926,18.448 15.928,16.965 L15.928,16.329 L8.628,16.329 C7.681,16.329 6.909,17.090 6.908,18.026 L6.866,60.460 C6.865,61.394 7.636,62.158 8.582,62.158 L44.370,62.158 C45.316,62.158 46.088,61.394 46.089,60.460 L46.103,46.958 C46.374,47.081 46.692,47.151 47.054,47.151 C47.399,47.151 47.700,47.084 47.963,46.971 L47.950,60.459 C47.948,62.412 46.344,63.994 44.368,63.994 L8.580,63.994 C6.605,63.994 5.004,62.412 5.006,60.459 L5.047,18.025 C5.049,16.072 6.653,14.489 8.630,14.489 L15.930,14.489 L15.931,13.429 C15.933,11.947 17.154,10.741 18.654,10.741 L21.889,10.741 C21.887,10.693 21.874,10.649 21.874,10.601 C21.877,8.062 23.962,6.004 26.532,6.004 C29.101,6.004 31.182,8.062 31.179,10.601 C31.179,10.649 31.166,10.693 31.165,10.741 L34.400,10.741 C35.900,10.741 37.119,11.947 37.118,13.429 L37.117,14.490 L44.417,14.490 C46.395,14.490 47.994,16.073 47.991,18.026 L47.990,19.226 ZM26.530,7.843 C24.990,7.843 23.736,9.080 23.735,10.601 C23.733,12.121 24.985,13.359 26.525,13.359 C28.062,13.359 29.317,12.121 29.319,10.601 C29.320,9.081 28.068,7.843 26.530,7.843 ZM34.398,12.580 L30.707,12.580 C29.955,14.123 28.372,15.198 26.523,15.198 C24.674,15.198 23.092,14.123 22.344,12.580 L18.652,12.580 C18.179,12.580 17.793,12.961 17.793,13.429 L17.789,16.965 C17.789,17.433 18.173,17.813 18.647,17.813 L34.393,17.813 C34.866,17.813 35.252,17.434 35.253,16.965 L35.256,13.429 C35.257,12.962 34.872,12.580 34.398,12.580 Z" class="cls-3"/>
    <path d="M60.190,25.082 L60.192,25.084 C60.156,25.139 60.133,25.198 60.093,25.252 L45.763,44.522 C44.692,45.961 42.621,46.287 41.144,45.248 C39.667,44.211 39.337,42.196 40.407,40.757 L53.254,23.481 L53.249,23.478 C53.409,23.228 53.352,22.896 53.102,22.721 C52.853,22.546 52.512,22.596 52.316,22.822 L52.310,22.817 L38.724,41.086 C38.093,41.935 36.871,42.127 36.000,41.514 C35.129,40.903 34.935,39.714 35.565,38.866 L50.750,18.447 L50.762,18.455 C51.865,17.052 54.599,17.462 57.271,19.340 C59.889,21.180 61.108,23.612 60.190,25.082 ZM56.474,20.410 C54.514,19.032 52.509,18.674 51.845,19.216 L51.849,19.219 L36.664,39.638 C36.473,39.896 36.532,40.258 36.797,40.444 C37.062,40.631 37.434,40.572 37.626,40.314 L51.292,21.935 L51.309,21.948 C51.963,21.222 53.082,21.075 53.899,21.649 C54.728,22.232 54.931,23.336 54.399,24.170 L54.408,24.177 L41.505,41.529 C40.874,42.377 41.069,43.566 41.940,44.178 C42.810,44.790 44.033,44.598 44.664,43.750 L58.981,24.514 C59.500,23.816 58.557,21.875 56.474,20.410 ZM36.857,44.183 L39.403,45.909 C39.923,46.262 40.242,46.707 40.326,47.195 C40.396,47.601 40.292,48.017 40.034,48.364 C40.034,48.364 40.034,48.364 40.033,48.364 C39.820,48.651 39.511,48.888 39.115,49.067 L36.416,50.286 C35.696,50.612 34.980,50.595 34.451,50.241 C33.922,49.887 33.652,49.242 33.710,48.471 L33.929,45.544 C33.963,45.089 34.095,44.704 34.322,44.399 C34.798,43.759 35.767,43.444 36.857,44.183 ZM35.421,45.171 C35.378,45.229 35.303,45.366 35.282,45.637 L35.064,48.564 C35.042,48.848 35.103,49.074 35.224,49.154 C35.343,49.234 35.582,49.209 35.847,49.089 L38.546,47.870 C38.723,47.790 38.861,47.691 38.935,47.591 C38.995,47.510 38.995,47.456 38.988,47.417 C38.966,47.290 38.831,47.132 38.625,46.992 L36.079,45.266 C35.934,45.167 35.578,44.960 35.421,45.171 Z" class="cls-3"/>
  </g>
</svg>
