<svg xmlns="http://www.w3.org/2000/svg" xmlns:xlink="http://www.w3.org/1999/xlink" preserveAspectRatio="xMidYMid" width="65" height="76" viewBox="0 0 65 76">
  <defs>
    <style>
      .cls-1 {
        fill: #ffd99b;
      }

      .cls-2 {
        fill: #08305d;
      }

      .cls-2, .cls-3 {
        fill-rule: evenodd;
      }

      .cls-3 {
        fill: #61a7cf;
      }
    </style>
  </defs>
  <g>
    <circle cx="29.875" cy="32.125" r="12.375" class="cls-1"/>
    <path d="M60.860,32.344 C60.349,32.975 59.680,33.380 58.925,33.518 C58.741,33.551 58.548,33.567 58.359,33.565 L58.358,33.565 C57.999,33.562 57.641,33.496 57.295,33.373 C56.159,32.962 55.612,31.636 55.346,30.459 C55.330,30.390 55.317,30.320 55.304,30.250 C54.205,29.840 52.475,29.217 50.567,28.534 C50.477,27.641 50.383,26.747 50.296,25.853 C52.220,26.540 53.943,27.156 54.951,27.527 L55.826,27.851 C56.363,27.396 57.284,26.780 57.910,26.668 C58.105,26.633 58.302,26.617 58.497,26.619 C59.659,26.630 60.716,27.312 61.320,28.442 C61.996,29.707 61.823,31.166 60.860,32.344 ZM60.114,29.757 C59.962,28.831 59.293,28.225 58.413,28.216 C58.295,28.215 58.174,28.225 58.053,28.247 C57.027,28.418 56.403,29.310 56.569,30.365 C56.715,31.314 57.386,31.931 58.274,31.940 C58.403,31.942 58.537,31.929 58.672,31.905 C59.699,31.707 60.293,30.824 60.114,29.757 ZM40.817,25.027 C40.042,25.765 38.504,26.072 37.508,25.925 C36.964,26.726 36.646,27.227 36.313,27.755 C35.962,28.312 35.599,28.886 34.954,29.829 L34.219,30.903 C33.149,32.463 32.083,34.026 31.013,35.588 C31.638,36.754 31.845,38.384 31.017,39.546 C30.479,40.300 29.760,40.776 28.938,40.922 C28.754,40.958 28.562,40.974 28.373,40.971 C28.103,40.969 27.828,40.929 27.556,40.857 C26.138,40.477 25.086,39.252 25.002,37.875 C24.974,37.414 25.365,36.654 25.437,36.264 L19.833,31.476 C19.765,30.886 19.734,30.288 19.740,29.690 C19.749,28.836 19.515,28.316 19.674,27.496 L26.933,34.509 C27.424,34.334 28.565,34.280 29.091,34.350 C30.230,32.700 31.391,30.997 32.487,29.390 L34.249,26.810 C34.659,26.208 34.810,25.946 34.955,25.693 C35.094,25.451 35.238,25.202 35.588,24.686 C34.949,23.505 34.763,21.819 35.642,20.647 C36.172,19.941 36.876,19.490 37.681,19.346 C38.184,19.256 38.711,19.296 39.225,19.461 C40.460,19.867 41.093,21.327 41.302,22.617 C41.934,22.852 42.776,23.159 43.739,23.507 C43.694,24.382 43.727,25.252 43.915,26.155 C43.000,25.825 42.215,25.542 41.653,25.335 L40.817,25.027 ZM30.111,37.167 C29.942,36.152 29.048,35.476 28.036,35.659 C27.534,35.748 27.113,36.021 26.844,36.423 C26.573,36.826 26.478,37.336 26.578,37.856 C26.746,38.757 27.413,39.345 28.275,39.354 C28.405,39.356 28.539,39.342 28.673,39.317 C29.702,39.118 30.293,38.233 30.111,37.167 ZM40.040,22.522 C39.904,21.575 39.217,20.935 38.324,20.926 C38.203,20.925 38.077,20.935 37.952,20.960 C36.921,21.145 36.316,22.018 36.483,23.083 C36.625,23.998 37.341,24.640 38.219,24.650 C38.323,24.651 38.430,24.642 38.533,24.625 C39.555,24.457 40.189,23.573 40.040,22.522 ZM12.009,23.920 L9.073,20.538 C8.906,20.588 8.424,20.946 8.261,20.976 C6.879,21.226 5.683,20.698 4.892,19.491 C4.008,18.145 4.179,16.409 5.320,15.168 C5.817,14.627 6.441,14.279 7.122,14.156 C7.934,14.009 8.795,14.206 9.521,14.699 C10.826,15.587 10.987,17.210 10.594,18.806 L12.856,20.912 C12.384,21.993 12.309,22.785 12.009,23.920 ZM9.463,17.227 C9.293,16.329 8.626,15.740 7.765,15.732 C7.632,15.731 7.498,15.743 7.363,15.772 C6.336,15.971 5.746,16.858 5.930,17.924 C6.086,18.835 6.772,19.450 7.635,19.459 C7.778,19.460 7.924,19.446 8.069,19.416 C9.060,19.205 9.659,18.263 9.463,17.227 Z" class="cls-2"/>
    <path d="M49.736,47.502 L57.980,56.503 L54.225,60.253 L48.232,50.502 L49.736,47.502 Z" class="cls-3"/>
    <path d="M56.881,59.968 C55.404,61.377 53.064,61.317 51.665,59.834 L44.404,52.137 C43.225,50.888 43.089,49.023 43.956,47.623 L41.728,45.262 C34.404,51.575 23.334,51.076 16.632,43.972 C9.716,36.641 10.030,25.011 17.333,18.047 C24.636,11.082 36.203,11.380 43.119,18.711 C49.821,25.815 49.733,36.957 43.075,43.977 L45.304,46.339 C46.740,45.541 48.584,45.777 49.763,47.026 L57.023,54.723 C58.423,56.206 58.359,58.559 56.881,59.968 ZM41.772,19.996 C35.560,13.411 25.169,13.143 18.609,19.399 C12.049,25.655 11.767,36.102 17.979,42.687 C24.192,49.273 34.582,49.540 41.142,43.284 C47.702,37.028 47.984,26.581 41.772,19.996 ZM45.821,48.244 C45.250,48.788 45.110,49.614 45.399,50.303 L47.888,47.929 C47.220,47.602 46.392,47.700 45.821,48.244 ZM55.676,56.007 L48.415,48.311 C48.415,48.310 48.414,48.309 48.413,48.308 L48.855,48.777 L46.190,51.318 L45.749,50.850 C45.749,50.850 45.750,50.851 45.751,50.852 L53.011,58.549 C53.012,58.549 53.013,58.550 53.014,58.551 L52.656,58.172 L55.320,55.631 L55.678,56.010 C55.678,56.009 55.677,56.008 55.676,56.007 ZM56.076,56.680 L53.659,58.985 C54.304,59.246 55.069,59.128 55.606,58.615 C56.143,58.103 56.299,57.342 56.076,56.680 ZM24.819,19.968 C22.213,20.738 20.064,22.477 18.765,24.863 C17.466,27.252 17.168,30.009 17.930,32.625 C18.011,32.903 17.852,33.196 17.575,33.278 C17.297,33.360 17.007,33.200 16.926,32.922 C16.086,30.037 16.413,26.996 17.848,24.359 C19.280,21.726 21.652,19.808 24.525,18.958 C24.802,18.876 25.093,19.036 25.174,19.315 C25.255,19.594 25.096,19.886 24.819,19.968 Z" class="cls-2"/>
  </g>
</svg>
