<?xml version="1.0" encoding="utf-8"?>
<!-- Generator: Adobe Illustrator 19.0.0, SVG Export Plug-In . SVG Version: 6.00 Build 0)  -->
<svg version="1.1" id="Layer_1" xmlns="http://www.w3.org/2000/svg" xmlns:xlink="http://www.w3.org/1999/xlink" x="0px" y="0px"
	 viewBox="179 -24 1224.5 840" style="enable-background:new 179 -24 1224.5 840;" xml:space="preserve">
<style type="text/css">
	.st0{fill:none;stroke:#8E8E8E;stroke-width:18;}
	.st1{fill:#8E8E8E;}
</style>
<g>
	<path class="st0" d="M271.9,435.2c-43.6,0-78.9-35.3-78.8-78.9s35.4-78.9,79-78.9"/>
	<path class="st0" d="M538.3,581.7c0,43.4-35.4,78.6-79,78.6c-43.6,0-78.9-35.2-78.8-78.6"/>
	<path class="st0" d="M271.5,435.3h33.4c41.7,0,75.5,33.8,75.4,75.5l-0.1,71.6"/>
	<path class="st0" d="M1189.1,598.3c-24.2,11.2-21.7,41.2-21.7,52.6l0,4.5"/>
	<path class="st1" d="M1185.2,590.2l28.6-13.6l-12.3,18.9c0,0,7.2,0.4,26,6.2c-20.7-1.4-34.6,4.8-34.6,4.8L1185.2,590.2z"/>
	<path class="st0" d="M268.6,277.3L268.6,277.3c41.7,0,75.6-33.8,75.6-75.5l0.1-193.2"/>
	<path class="st0" d="M538.5,582.7l0.8-77.1"/>
	<path class="st0" d="M695.1,698.3L694.7,510"/>
	<path class="st0" d="M852.1,697.3l0-104.3"/>
	<path class="st0" d="M1009.5,656.3l0.6-63.3"/>
	<path class="st0" d="M539.3,510.2c0-43.4,34.1-78.6,77.7-78.6s77.6,35.2,77.6,78.6"/>
	<path class="st0" d="M852.1,593.8c0-43.4,35.4-78.6,79-78.6c43.6,0,78.9,35.2,78.8,78.6"/>
	<path class="st0" d="M851.9,696.6c0,43.4-35.4,78.6-79,78.6c-43.6,0-77.9-35.2-77.8-78.6"/>
	<path class="st0" d="M1167.4,654.2c0,43.4-35.4,78.6-79,78.6c-43.6,0-78.9-35.2-78.8-78.6"/>
</g>
</svg>
